<svg width="32" height="24" viewBox="0 0 32 24" fill="none" xmlns="http://www.w3.org/2000/svg">
<g filter="url(#filter0_d_4_222)">
<path d="M23.8 6.76923C26.0713 6.76923 28 8.66184 28 11.0769V14.7692H26.2V16H25V14.7692H7V16H5.8V14.7692H4V11.0769C4 8.74741 5.86341 6.76923 8.2 6.76923H23.8ZM22.6 0C24.2133 0 25.6004 1.33021 25.6 3.07692L25.6004 6.01703C25.0548 5.71017 24.4443 5.53846 23.8 5.53846L22.6 5.53784C22.6 4.48392 21.7586 3.69231 20.8 3.69231H17.2C16.739 3.69231 16.3185 3.87004 16.0001 4.16234C15.682 3.87026 15.2613 3.69231 14.8 3.69231H11.2C10.2061 3.69231 9.40033 4.51853 9.4 5.53784L8.2 5.53846C7.55587 5.53846 6.9456 5.71006 6.4 6.01675V3.07692C6.4 1.4223 7.69394 0 9.4 0H22.6ZM14.8 4.92277C15.1256 4.92277 15.4 5.23046 15.4 5.53846L10.6 5.53784C10.6 5.16134 10.8923 4.92308 11.2 4.92308L14.8 4.92277ZM20.8 4.92722C21.1395 4.92277 21.3997 5.22253 21.4 5.53784H16.6C16.6 5.15596 16.8923 4.92308 17.2 4.92308L20.8 4.92722Z" fill="#888B97"/>
</g>
<defs>
<filter id="filter0_d_4_222" x="0" y="0" width="32" height="24" filterUnits="userSpaceOnUse" color-interpolation-filters="sRGB">
<feFlood flood-opacity="0" result="BackgroundImageFix"/>
<feColorMatrix in="SourceAlpha" type="matrix" values="0 0 0 0 0 0 0 0 0 0 0 0 0 0 0 0 0 0 127 0" result="hardAlpha"/>
<feOffset dy="4"/>
<feGaussianBlur stdDeviation="2"/>
<feComposite in2="hardAlpha" operator="out"/>
<feColorMatrix type="matrix" values="0 0 0 0 0 0 0 0 0 0 0 0 0 0 0 0 0 0 0.25 0"/>
<feBlend mode="normal" in2="BackgroundImageFix" result="effect1_dropShadow_4_222"/>
<feBlend mode="normal" in="SourceGraphic" in2="effect1_dropShadow_4_222" result="shape"/>
</filter>
</defs>
</svg>
